<?xml version="1.0" encoding="utf-8"?>
<!-- Generator: Adobe Illustrator 25.2.3, SVG Export Plug-In . SVG Version: 6.00 Build 0)  -->
<svg version="1.1" id="Capa_1" xmlns="http://www.w3.org/2000/svg" xmlns:xlink="http://www.w3.org/1999/xlink" x="0px" y="0px"
	 viewBox="0 0 3608.9 2843.7" style="enable-background:new 0 0 3608.9 2843.7;" xml:space="preserve">
<style type="text/css">
	.st0{fill:#444B20;}
</style>
<g>
	<path class="st0" d="M3608.9,1216.4c-35.9,39.1-85.2,47.9-132.4,44.8c-157.9-10.6-306.4,35.2-457.8,66.4
		c-97,20-192.9,41.3-276.4,97.9c-39.8,27-77.2,57.3-117,84.3c-54.2,36.7-110,71-164.1,107.8c-19.9,13.6-41.8,28.2-54.6,47.7
		c-83.5,127.4-110.7,149.3-252.8,191c10.9,16.2,20.7,31.9,31.6,46.8c48.6,66.7,60.2,138.9,19.4,211.4
		c-41.4,73.5-35.5,141.8,9.4,208.2c35.6,52.6,23.8,97.1-15.3,139.4c-42.9,46.4-56.6,102.4-51.4,162.8c2.6,29.9,14,59.1,22,88.5
		c11.7,43.2-2.1,84.5-39.6,106.7c-12.1,7.2-31.2,13.8-42.6,9.3c-48.3-19-91.5-5.9-135.7,12.6c-9.7,4-23,0.1-34.5-1.1
		c-29.9-3.2-59.9-6.2-89.6-10.9c-10.4-1.6-25-5.2-28.8-12.5c-4.3-8.1-1.7-23.3,3.3-32.5c37.3-67.7,6.8-115.4-74.6-115.4
		c-25.8,79.2-122.9,127.9-204.4,102.6c-5.3-1.7-10.9-3.7-16.3-3.8c-43.8-0.4-87.6-0.1-131.5-0.4c-40.7-0.3-81.5-3.3-122.1-1.3
		c-43.9,2.1-50.9-6-32.9-47.1c34.3-78.4,65.6-88.9,154-78.4c20.6,2.4,41.8,0.4,62.7,0.4c0.7-3.9,1.3-7.7,2-11.6
		c-11.8-5.7-23.4-12-35.6-17.1c-27.6-11.4-29.9-22.1-7.2-42c30.4-26.6,64.2-32.1,107.9-10.3c7.2-30.7,18-59.2,20-88.4
		c3.9-55,1.9-110.3,4-165.4c1.7-44.7-11.6-83-42.1-115.5c-33.8-35.9-66.1-73.3-101.5-107.6c-64.6-62.8-97.8-136.4-86.4-227.6
		c1.1-9.2,0.2-18.6,0.2-28c-112.6,51.6-172,110.4-127.3,240.1c15.3,44.3,31.2,88.4,45.9,132.8c12.3,37.1,8.4,73.3-4.8,110.1
		c-13.4,37.3-22.7,76-34.9,113.7c-2.6,8-8.9,19.4-15.1,20.4c-6.6,1.2-17.1-6.3-22.3-12.8c-12.9-16.4-23.7-34.5-41.9-61.7
		c-12.4,35.6-24.9,62.5-30.9,90.7c-6.4,29.8-19.6,39.3-43.3,19.2c-16-13.6-25.9-35.1-36.1-54.3c-5.6-10.6-6.4-23.8-10.4-40.2
		c-11.6,15.7-20.9,28.3-34.9,47.3c-9.8-15.3-20.8-26.1-24.2-39c-16.5-63.5,3.2-125.1,16.7-185.8c4.6-20.8,29.6-38.3,47.7-54.5
		c22.7-20.3,30.2-41.5,20.8-71.7c-25.4-82.3,29.4-272.7,118.6-313.9c30.7-14.2,36.7-43.9,39.6-73.7c0.5-5.7-2.6-13.8-6.9-17.6
		c-45.9-40-91.8-80.1-139-118.6c-11.1-9.1-27-12.4-49.4-22.2c11.3,56.9,19.7,106.1,30.9,154.6c15.4,66.9,5.3,93.5-53.8,128.4
		c-31.3,18.5-63,36.3-94.8,53.9c-69.6,38.5-122.3,125.2-60.2,217.1c5,7.4,10.3,18.1,8.8,26c-12.2,65.4,31.1,115.7,44,174.4
		c14.4-9.6,27.4-18.2,44.4-29.5c10.1,43,15.4,78.2-16.7,109c-5.9,5.7-9.4,18.4-7.8,26.6c6.6,32.9-7.5,50.9-40,41.1
		c-24-7.2-44.8-24.9-71-40.3c5.2-2.7,2.7-2.1,1.4-0.6c-9,10.5-17.8,21.1-26.6,31.7c-9.8-12.2-25.5-23.2-28.3-36.8
		c-8.7-42.8-17.7-83.9-40.1-123.1c-10.6-18.5-3.6-47.7-3.1-72c0.8-42.8,2.8-85.7,4.3-128.5c1.9-54.9-2.2-110.9,7.9-164.3
		c6-31.7,29.4-64.5,53.8-87.5c51.9-48.8,66.7-106.2,73.9-175.2c9.3-88.3-5.2-164.9-49.1-241.3c-36.3-63.4-30.4-133.3-5-201.1
		c12.7-34,24.7-68.3,37.5-102.4c9.3-24.8,5-44.4-9.3-68.4C742.7,987.5,723.2,943,708,898c-18.8-55.7-49-97.7-105-119.5
		c-12.9-5-27.6-11.8-35.3-22.2c-32.7-44.7-81.3-56.7-130.6-68.7c-32.5-7.9-56.7-25.5-72.4-56.4c-4.5-8.9-18.7-18.2-28.5-18.2
		c-66.8,0-133.6,1.1-200.3,4.4C75,620.2,25.2,585.9,10,527.2c-8.5-32.6,13.4-40.6,38.2-46.5c3.3-18.7,5.8-37.2,10-55.2
		c9.3-39.1,20.8-42.4,49.5-15.2c44.1-29.2,63-30.3,90.6-5.2c24.8-26.8,58.1-27.3,87.9-1.4c6.5-11.5,17.4-22.7,18.5-34.7
		c2.4-26-17-36.5-44.5-34.5c-10,0.7-22.8-12.5-31.1-22.2c-4.2-4.8-1.7-15.8-1.2-24c0.5-8.1,2.3-16.1,3.6-24.8
		c-15.2,9.3-30.9,26.7-44.2,25c-14.5-1.8-26.9-21.2-40.3-33c-27.4,24.6-30.9,23.1-47.9-12.6c-4-8.4-19.3-20.1-24.3-18
		c-34.7,14.4-32.3-14.6-35.4-30.8c-5-26.1-0.9-51.1-28.2-72.3c-22.3-17.4-7.8-46,9.9-65.3C54.6,19.7,99.3,0.4,146.5,0.3
		c165.1-0.4,331.9-6.2,486.8,67.2c95.2,45.1,181.7,101.8,241.6,192.2c14.8,22.3,34.3,41.5,51.9,61.9
		c54.7,63.6,69.1,142.2,81.7,221.3c9.3,58.4,29.5,109.7,78,148.5c21.5,17.2,36.3,42.8,53.7,64.8c27.1,34.2,60.7,53.7,105.8,52.9
		c72.9-1.3,140.7,14,203.9,54.2c65,41.3,142.4,43.9,216.1,56.8c28.7,5,59.3,8.6,84.8,21.3c55.5,27.5,112.3,29.3,172.9,31.2
		c97.8,3.2,195.4,20,292.6,34.3c22,3.2,45.2,15.9,62.3,30.7c39.2,33.8,84.6,44.8,133.7,44.5c43.4-0.2,86.7-5.2,130-5.9
		c80.8-1.4,161.7,0.4,242.5-2c84.3-2.4,168.7-12.9,252.8-11.3c118.2,2.3,237.3,5.3,354.1,21.9c82.7,11.7,164,42.9,217.2,117.4
		C3608.9,1207,3608.9,1211.7,3608.9,1216.4z M1754.4,981.5c0.4-2.4,0.7-4.7,1.1-7.1c-37.5-6.4-74.9-13.6-112.6-18.9
		c-75.4-10.7-154.5-13.3-215.8-64.8c-46.5-39.1-98.5-54.2-155.7-53.6c-76.9,0.9-139.4-25.4-189.1-83.9
		c-12.1-14.3-25.7-27.5-39.9-39.7c-41.4-35.5-61.4-81.4-70-134.1c-12.5-76.3-23.8-153-62.1-222.4
		C813.4,181.3,647.5,103.7,466.5,56.1c-92-24.2-190.2-26.2-285.9-35C117.8,15.2,72,47.4,28.7,104.7c29.1,10.4,53.3,16.5,75.1,27.3
		c58.3,28.8,119.8,53.8,171.8,91.6c33,24,62.3,47.6,102.8,42c92.6-12.9,170.9,17.6,242,73c29.8,23.2,62.1,27.1,102.2,15.6
		c-7.2,20.1-13,36.3-18.8,52.6c-3.2,3.7-6.5,7.3-9.7,11c0.8-44-19.3-31-35.2-27c-25,6.3-50.8,10.9-74.3,20.7
		c-95.4,40.1-191.2,77.5-296.2,83.1c-69.9,3.7-139.8,6.9-209.7,10.7c-15.3,0.8-30.6,3.5-47.6,5.5c31.6,67.7,54.8,79.6,121.1,70.2
		c30-4.3,61-9.5,90.7-6.5c86.2,8.7,171.9,22.3,258,31.9c21.1,2.4,43.8-0.5,64.6-5.6c28.1-6.9,54.5-23.2,82.7-26.9
		c65.5-8.4,109.5-43.3,140.7-98.9c9.2-16.4,20.6-31.7,31-47.5c3.8,1.9,7.6,3.9,11.5,5.8c-7.4,19.5-13.8,39.4-22.4,58.3
		c-8.8,19.2-19.7,37.4-34.7,65.2c30.4-24.9,52.5-43,74.6-61.1c-23.9,62.3-73.7,87-131.4,101.4c-39.6,9.9-81.5,16.3-117.3,34.3
		c-41,20.6-78.7,25.5-121.5,11.6c-28.6-9.3-58.6-14.6-87.9-21.8c-1.5,4.7-2.9,9.5-4.4,14.2c21.9,8.3,43.7,17,65.8,24.9
		c38.2,13.6,84.5,17.3,113.1,41.9c66.7,57.1,135.5,79.3,220.3,53.4c21.7-6.6,46.3-3.8,69.6-5.4c0.7,4.3,1.4,8.6,2.2,12.9
		c-49.8,15.2-99.7,30.4-149.5,45.6c0.4,2.8,0.7,5.6,1.1,8.5c67.4,0,134.9,0,209.8,0c-64.6,35.1-127.1,34-195.2,27.7
		c29.2,63.4,60.6,122.8,96.1,179.7c39.3,63.1,22.6,129.1,24.9,194.3c-5.4,1-10.8,2-16.1,3c-8-30.2-16-60.4-24.5-92.2
		c-3,3.5-4.9,4.8-5.6,6.6c-41.3,100.4-60.5,199.2,10.4,296.8c26.1,36,24.7,77.9,12.1,121.3c-8.5,29.6-13.2,63.1-8.5,93.2
		c13.2,84.8-16,151.7-74.5,209.6c-60.7,60.1-70.4,130-47.4,210.6c9.8,34.5,6.6,73.1,6.8,109.8c0.1,20.9-6.6,41.7-6.8,62.6
		c-0.2,13,5.9,26.1,9.2,39.1c4.4-0.5,8.9-1,13.3-1.6c3-39.2,6.1-78.3,9.6-123.2c27.4,30.1,21.7,63.1,21.3,94.4
		c-0.2,17.5-4.9,35.6-1.7,52.3c2,10.2,14.1,24.2,23.4,25.8c9.2,1.5,28.8-9.7,29.6-16.9c2.8-25.5,2.8-52.2-2.2-77.3
		c-6.7-34-19-66.8-28.9-100.2c-3-10-4.8-20.6-9.2-30c-41.2-87.1-25.1-168.8,49.1-229.6c38-31.1,78.8-59.3,120.3-85.7
		c32.5-20.8,40.7-47.1,35.3-83.7c-7.3-49.7-10-100.1-16.2-149.9c-1.2-10-6.9-22.6-14.7-28.1c-78.5-55.3-117.3-150.7-98.3-246.8
		c12.6,40.9,23,81.5,37.5,120.7c20.6,55.6,60.5,88.8,119.5,103.2c26.6,6.5,52.5,23,74.1,40.6c33.9,27.6,64,60.1,95.6,90.5
		c2.7-1.7,5.4-3.4,8.1-5.1c-1.7-13.3-2.7-26.7-5.2-39.9c-10.4-54.4-28.4-105.3-57.5-153.3c-30.3-49.9-41-106.4-35.5-166.1
		c8.8,34.4,17.6,68.8,26.4,103.2c4.9-17.9,2.3-34.1,2.1-50.3c-0.2-14.4,2.3-28.8,3.7-43.2c16.2,62,36.7,119.8,57.5,177.6
		c14.7,40.7,33.3,80.3,44,121.9c24.3,94.2-7.4,171.6-85.2,228.4c-43.4,31.7-69.7,75-72.7,130.6c-1.6,30.2-11.1,61.3-6.5,90.2
		c11.8,73.2-23,123-69,173c-27.2,29.6-19.3,60.1,7.6,84.2c57.4-41.3,73.6-103.1,78.7-178.7c8.2,14.3,12.6,18.8,13.4,24
		c8.1,54.8,16.4,108.9-33.2,152.7c-10.7,9.5-17.6,36.3-11.8,48c6.1,12.1,31.6,23.7,44.8,20.4c12-3,22.5-25.4,26.9-41.1
		c4.2-15.1-0.7-32.5-0.7-49c0-42.2,23-74.6,46-107.4c1.2,19.3-4.7,36.3-7.8,53.8c-4.4,24.9-8.4,50.1-9.6,75.2
		c-1.3,27.4,16,27.9,35.1,18.6c33.6-16.3,33.1-45.8,25.9-75.8c-13.8-57-31-113.1-43.2-170.4c-12.3-57.6-13.6-116.5,29.3-163.2
		c31.5-34.4,69.1-63.2,104.4-94.1c23.8-20.8,49.6-39.6,72.2-61.6c31.6-30.8,41.9-69,21.5-109.3c-35.1-69.2-35.4-137.8-11-210.7
		c19.9-59.5,17.9-120.3-15.2-176.9c-3-5.1-3.2-12-6.3-24.7c42.5,25.8,48.6,64.7,64,99.7c-2.8-32.3-5.7-64.6-8.5-96.9
		c21.5,56.4,39.4,111.8,7.7,171.4c-35.4,66.6-52.9,135-4.3,205.2c29.9,43.2,31.4,89.3,5.1,136.3c-4.2,7.5-2.4,22.2,2.3,30.2
		c14.2,24.1,36.5,29.7,63.8,23.9c35.5-7.4,71.3-15.5,107.2-17.4c35.1-1.8,70.1,5.4,97.9,31.4c-18.9,1-36.6-3-54.4-5.7
		c-19.1-2.9-38.3-4.5-57.5-6.7c-0.9,3-1.8,6-2.7,9c20.7,9.1,40.6,21,62.2,26.6c34.1,8.9,58.2,28.5,77.2,56.9
		c8.4,12.6,17.9,24.8,28.3,35.8c44.5,47.1,119.8,60.2,179.2,27.7c-16.6-22.9-32.1-45.7-49.1-67.3c-34-43.4-68.7-86.2-103.4-129
		c-10.1-12.5-20.2-25.1-31.9-36c-60.3-56.4-100.5-190.8-76.9-249c22.1,127.8,34.1,163.6,60.3,187.6c-3.4-44.7-7-92.9-10.6-141.1
		c3.7-0.3,7.5-0.6,11.2-0.8c1.5,16,3,31.9,4.5,47.9c7,73,28.9,140.1,79.2,195.3c32.4,35.5,64.1,72.2,99.8,104.3
		c53.7,48.3,63.4,115.8,84,178.5c3.9,12,0,28.3-4.5,41.2c-13.5,39-6.4,73.5,17.2,106.2c34.2,47.5,69.5,94.6,70.9,152.9
		c21.6,12.9,54.3,1.9,58.1,43.4c-23.8-5.7-41.4-9.9-59-14.1c-2.8,2.3-5.5,4.7-8.3,7c6.7,9.8,11.7,22,20.7,28.7
		c10.8,8,25.1,11.4,37.9,16.7c-1.9,5.3-3.8,10.6-5.7,15.9c-19-4.3-38-8.6-60.3-13.7c-7.9,44.2,58.8,24.9,53.6,72
		c-22-4.8-43.4-9.5-64.8-14.2c-1.2,1.4-2.5,2.8-3.7,4.2c20,15.3,40.1,30.6,60.1,46c-1.9,3.5-3.8,7.1-5.7,10.6
		c-18.2-5.4-36.3-10.9-54.5-16.3c-2.6,3.4-5.2,6.8-7.8,10.2c17.9,14.1,35.9,28.1,53.8,42.2c-0.7,3.7-1.4,7.3-2.1,11
		c-17.5-0.9-35.1-1.7-54.7-2.7c-15.6,45.6-41.8,83.9-100.8,91.2c4.4,9.3,7.3,21.3,10.7,21.5c23,1.1,48,4.8,68.8-2.4
		c18.7-6.5,32.9-26,49.4-40c-2.2,75.8-53,86-119.1,76c15.2,19.3,27,30.7,34.4,44.4c18.2,34.2,32.2,38.6,67.3,22.9
		c15-6.7,33.9-12.6,49.2-9.6c45.7,9.2,63.6-1.8,65.6-48.1c0.6-12.8-0.7-25.8-2.6-38.5c-14.3-98.9-24.2-196.2,48.6-280.9
		c9.1-10.6,4.1-34.6,2.9-52.1c-0.6-8.7-7.2-17.1-11.6-25.4c-39.6-73.4-45.4-147.2-1.2-220.7c38.8-64.5,30.7-124.8-13.7-182.9
		c-13.5-17.7-24.8-37.2-38.9-54.4c-49.5-60.4-53.7-120.8-15.7-191.4c49.4-91.7,79.3-190.9,67.8-297.4c-4.1-37.7-14.5-74.8-22-112.1
		c2.9-1,5.8-2,8.7-3c13.3,35.5,26.5,71,39.8,106.4c1.4,0,2.8,0,4.2,0.1c0-30.7,0-61.4,0-92c53,134.3-24.9,250.2-54.3,377.3
		c35.2-16.6,66.3-31.4,97.4-46.1c2.1,4.5,4.2,8.9,6.3,13.4c-30.4,15.9-59.5,35.5-91.5,46.7c-29.7,10.4-36.8,29.9-43.3,65.7
		c114.8-57.9,191.6-160.6,319.1-198c-11,9.5-14.9,13.2-19.1,16.3c-57.5,42.4-114,86.3-172.9,126.7c-39.7,27.3-82.6,49.8-129.3,77.5
		c0-4.3-0.8,1.6,0.1,7.2c9.1,52.1,22.4,58.7,70.6,39.1c78.7-32,141.8-79,179-159.4c12.4-26.8,37.8-55.7,64.2-66.4
		c98.7-39.8,178.4-107.5,264.2-166.6c76.7-52.8,157.3-97.1,249.8-117.3c56.6-12.3,112.1-29.8,168-45c-0.6-3.5-1.1-6.9-1.7-10.4
		c-60.1,5.1-120.3,10.1-180.4,15.2c29.2-11.8,59.3-20.1,89.8-22.4c67.8-5,136.5-2,203.6-11.3c82-11.3,163-17.6,245.3-6.6
		c24.2,3.2,49.4,2.8,73.7,0.2c13.5-1.5,26.2-11.1,39.2-17c-8.7-11.6-14.9-27.2-26.4-34.3c-61.5-38-128-68.2-200.2-71.3
		c-121.8-5.2-243.9-4.5-365.9-2.7c-84.2,1.3-168.2,10.4-252.4,13c-62,1.9-124.2-1.6-186.3-1.4c-45.7,0.2-91.5,3.9-137.2,3.5
		c-54.9-0.6-106.3-14-152.4-46.3c-17.9-12.5-39-25.5-59.9-27.9c-103.5-11.7-207.2-22.5-311.1-28.3c-53.6-3-107.7,6.8-161.7,8
		c-36.1,0.8-72.4-3.5-108.6-5.5c-0.2-5.7-0.4-11.4-0.6-17.1C1663.1,993.8,1708.7,987.7,1754.4,981.5z M1716.2,2614.4
		c58.8-53.6,126.9-53.3,163.1-0.1c9.4,13.9,16.6,31.1,36.4,21.8c15.3-7.2,35.4-17.4,40.2-30.9c16.7-47.2,22.5-98.6,41.8-144.5
		c41.7-98.9,33.7-185.6-41.9-265.8c-33.6-35.6-44.7-80.5-32.7-131c4.2-17.7-2.2-39.1-8.1-57.4c-2.4-7.3-18.1-16.6-25.4-14.9
		c-57.1,13.1-109.1-1-166.2-29.9c20.9,67.8-6.7,122.3-28.6,177.6c-20.3,51.2-17.8,102.2-8.1,155.5c5.6,31,7.2,68-4.6,96
		C1647.3,2473.4,1668.5,2543.7,1716.2,2614.4z M1572.9,2660.3c-4.1,3-8.2,6.1-12.3,9.1c-9.1-11.2-16.4-25.2-27.9-32.7
		c-10.2-6.7-25.2-6.1-38-8.8c-1.7,10.8-6.3,22.1-4.6,32.3c2.7,15.9,11.2,30.8,14.5,46.7c6.7,32.2,28.2,42.6,57,37.5
		c27.5-4.8,54.7-12.5,81-21.6c59-20.5,67.2-53.9,30.1-106.2c-48.3-67.9-60.8-141.7-25.3-218.9c18.6-40.5,25.6-80.9,11.2-122.7
		c-22.8-66.4-13.2-129.1,16.3-190.6c5.5-11.6,9.9-23.9,13.7-36.1c16.6-53-18.4-155.9-59.5-176.1c-34.4-16.9-68.5-34.4-103.2-50.6
		c-9.1-4.3-20.6-8.3-30-6.7c-51.3,9.3-96.5,5.4-120.8-58.8c-22.5,26.6-51.6,45-53.4,65.8c-7.5,88.7,14.9,169.6,84.6,232
		c28.8,25.8,57.2,52.5,83.1,81.2c21,23.3,42.8,48.1,55.4,76.1c14.4,32.1,19.8,68.1,60.4,79.5c0.3,0.1-0.4,4.1-1.2,10.9
		c-14.3-2.5-28.4-5-44.7-7.9c-1.6,8.6-3.4,18.1-5.5,29.2c20.3,3.1,37.9,5.7,55.4,8.4c0.2,4.7,0.3,9.3,0.5,14
		c-18.3,1.7-36.6,3.4-57.1,5.3c0,6.8,0,16.8,0,29c8.2-1.1,14.9-2.6,21.5-2.8c9.8-0.3,19.8-0.3,29.5,1.1c1.7,0.2,3.8,11.6,3.3,11.8
		c-10.2,4.1-20.6,8.2-31.4,10.5c-7.4,1.5-15.3,0.3-24.3,0.3c0.6,10,1,16.9,1.4,22.7c19.1,0,37,0,54.9,0c0.8,4.3,1.5,8.6,2.3,12.9
		c-18.4,5.6-36.8,11.2-56,17.1c0,8.6,0,19.7,0,23.8c17.7,8.6,31,15.1,44.3,21.7c-14.5,6.6-29,13.1-45.6,20.6
		c-10,19.4-22,42.7-31.1,60.3C1539.4,2607.5,1556.1,2633.9,1572.9,2660.3z M1464.8,2660.2c-36.7,28-73.4,27.8-111.3,12.4
		c-24.8-10-33.4,6.3-25.7,23.1c7.6,16.6,25.3,37.5,41.1,39.8c38.6,5.7,78.6,1.9,123.5,1.9
		C1482.7,2710.3,1474.3,2686.8,1464.8,2660.2z M1892.5,2728.4c-9.8-57.3-21.6-109.3-85.4-122c-30.8-6.1-53.2,9.2-69.2,36.2
		c52.6,15.5,101.9,32.5,119.6,90.3C1869.7,2731.3,1880,2730,1892.5,2728.4z M1943.6,2814.8c3.3-4.1,6.5-8.2,9.8-12.2
		c-15.7-15.8-28.8-38.4-47.7-45.7c-25-9.6-60.5,17.6-69.5,42.3C1871.6,2804.3,1907.6,2809.6,1943.6,2814.8z M1007.7,2366.7
		c-3.4,1.1-6.8,2.1-10.3,3.2c11.3,30.9,22.6,61.8,33.9,92.6c3.2-1.2,6.4-2.4,9.6-3.5c7.3-23.7,14.6-47.4,21.7-70.5
		C1044.1,2381.1,1025.9,2373.9,1007.7,2366.7z M1234.5,2735.9c2.1,2.3,4.2,4.6,6.4,6.8c20.1-4.7,40.2-9.4,60.2-14
		c0-20.6,0-40,0-59.4c-2.4-2.1-4.7-4.1-7.1-6.2C1274.2,2687.3,1254.4,2711.6,1234.5,2735.9z M611.1,371.6
		c-29.5-17.3-49.8-29.3-72.4-42.6c-1.3,23.8-2.3,42.7-3.5,64.5C559.2,386.6,579.8,380.6,611.1,371.6z M170.8,175.9
		c-19.4-8.5-35.7-15.8-54.1-23.9c2.5,29.9,4.6,55.2,7.2,88C142.1,215.3,155,197.5,170.8,175.9z M943.9,2375.2
		c3.4,1.5,6.8,2.9,10.1,4.4c8.9-15,21.6-29.3,24.6-45.4c1-5.2-23.3-15.2-42.5-27C939.4,2336.2,941.7,2355.7,943.9,2375.2z
		 M1497,2590.5c-27.1-20.9-52-20.7-76.9-1.9C1445.2,2597,1469.2,2628.8,1497,2590.5z M196.7,466.8c-10.7-20-18.8-35-26.8-50
		c-3.3,1.5-6.7,2.9-10,4.4c-3.5,17.4-7.1,34.8-11.4,56.2C166.1,473.4,178.3,470.8,196.7,466.8z M1146.9,2403.1
		c8.8-27.9,14.4-45.9,21-67c-16.6,0-29.4,0-45.9,0C1130,2357.5,1136.6,2375.5,1146.9,2403.1z M811.5,2360.1
		c-12.6,5.5-23.1,10.1-40.9,17.9c21,13.6,36.1,23.3,51.2,33c1.9-2.4,3.8-4.8,5.7-7.1C822.4,2390,817.4,2376.1,811.5,2360.1z
		 M319.5,449c24.6-4,39.5-6.4,58.3-9.5c-10.7-15.2-18.2-25.9-28.9-41C338.7,416.3,331.4,428.7,319.5,449z M196.4,251.2
		c15.1-12.4,24.7-20.3,36.3-29.8c-15.4-11.2-25.4-18.4-36.3-26.3C196.4,213.7,196.4,228.6,196.4,251.2z M104.7,477.5
		c-6.9-18.8-12.6-34.3-21.7-59.1c-8.7,24.9-14.2,40.3-20.7,59.1C78,477.5,89,477.5,104.7,477.5z"/>
	<path class="st0" d="M541.7,223.6c12.7,6.2,27.9,13.6,45.3,22.1c-47.1,14.6-75.8-6.2-91.4-64.1c-7.8,1.9-15.7,3.8-25.5,6.1
		c17.1-44.6,86.2-68.2,121-42c6.6,5,9.1,28,3.7,34.2C580.2,196.7,560.4,208.9,541.7,223.6z"/>
	<path class="st0" d="M2006.8,1854.1c4.5-19.6,9-39.2,13.4-58.9c3,0.4,5.9,0.8,8.9,1.2c-2.5,48-5,95.9-7.6,143.9
		c-3.1,0.7-6.1,1.3-9.2,2c-9.1-36.6-28-74-25.1-109.6c4.3-53.9,22.6-106.9,37.3-159.7c8-28.8,20.7-56.3,34.2-83.6
		C2044.9,1678.3,1996.7,1760.3,2006.8,1854.1z"/>
	<path class="st0" d="M442.3,134.8c-15.1,2.3-30.1,5.6-45.2,6.4c-12.8,0.7-26.1-3.9-38.4-1.9c-18.7,3.1-42,5-53.2,16.9
		c-6.9,7.3,5.1,32.4,5.5,55.7c-12.5-14.8-33.2-28.6-35-44.6c-1.5-13.5,15.9-35.7,30.4-42.7c17.5-8.4,40.9-6.6,61.6-6
		c24.4,0.7,48.7,4.7,73.1,7.3C441.5,128.8,441.9,131.8,442.3,134.8z"/>
</g>
</svg>
